# xmcd
# 
# Track frame offsets:
#     150
#     22402
#     47555
#     63087
#     94722
#     115735
#     125167
#     147702
#     173972
# 
# Disc length: 2506
# 
# Revision: 3
# Processed by: cddbd v1.5.2PL0 Copyright (c) Steve Scherf et al.
# Submitted via: BonkEnc v1.0.15
# 
DISCID=8409c809
DTITLE=Les Dudek - Say No More
DYEAR=1977
DGENRE=Rock
TTITLE0=Jailabamboozle
TTITLE1=Lady You're Nasty
TTITLE2=One To Beam Up
TTITLE3=Avatar
TTITLE4=Old Judge Jones
TTITLE5=Baby Sweet Baby
TTITLE6=What's It Gonna Be
TTITLE7=Zorro Rides Again
TTITLE8=I Remember
EXTD=Submitted by jleeherron@gulf.net YEAR: 1977
EXTT0=
EXTT1=
EXTT2=
EXTT3=
EXTT4=
EXTT5=
EXTT6=
EXTT7=
EXTT8=
PLAYORDER=
